<svg xmlns="http://www.w3.org/2000/svg" xmlns:svg="http://www.w3.org/2000/svg" xmlns:xlink="http://www.w3.org/1999/xlink" version="1.0" height="1250pt" width="1170pt" viewBox="-5 -303 1178 1256" ><defs><style type="text/css">
            @font-face {
                font-family: 'lt_regular';
                src: url('https://app.creately.com/diagram/assets/fonts/lato/lt-regular-webfont.woff2') format('woff2'),
                    url('https://app.creately.com/diagram/assets/fonts/lato/lt-regular-webfont.woff') format('woff');
                font-weight: normal;
                font-style: normal;
            }
            @font-face {
                font-family: 'noto_regular';
                src: url('https://app.creately.com/diagram/assets/fonts/noto/noto-regular.woff') format('woff'),
                     url('https://app.creately.com/diagram/assets/fonts/noto/noto-regular.woff2') format('woff2');
                font-weight: normal;
                font-style: normal;
            }
        p {
            margin: 0;
        }
        </style></defs><defs><style>
            span{ display: inline-block; }
        </style></defs><g id="HYA7yWYvnOJ"><g transform="translate(700 -300)"><rect x="0" y="0" width="160" height="200" rx="2" ry="2" fill="rgb(230,109,78)" stroke="#873e2b" stroke-width="2" stroke-linecap="round" stroke-linejoin="round" stroke-dasharray="0 0"/><path d="M 0,30 L 160,30 M 0,140 L 160,140" fill="rgb(230,109,78)" stroke="#873e2b" stroke-width="2" stroke-linecap="round" stroke-linejoin="round" stroke-dasharray="0 0"/></g><g transform="translate(765, -295) rotate(0, 15, 0)" width="30" height="20"><text text-decoration="none" x="0" fill="#ffffff" font-size="11pt" font-family="lt_regular"  y="16">User</text><text text-decoration="none" x="30" fill="#4b4b4b" font-size="10pt" font-family="noto_regular"  y="16"></text></g><g transform="translate(710, -265) rotate(0, 0, 0)" width="142" height="100"><text text-decoration="none" x="0" fill="#ffffff" font-size="11pt" font-family="lt_regular"  y="16">Name:&#160;</text><text text-decoration="none" x="46" fill="#ffffff" font-size="11pt" font-family="lt_regular"  y="16">String</text><text text-decoration="none" x="84" fill="#ffffff" font-size="11pt" font-family="lt_regular"  y="16"></text><text text-decoration="none" x="0" fill="#ffffff" font-size="11pt" font-family="lt_regular"  y="36">ShareToUsers:&#160;</text><text text-decoration="none" x="98" fill="#ffffff" font-size="11pt" font-family="lt_regular"  y="36">User</text><text text-decoration="none" x="128" fill="#ffffff" font-size="11pt" font-family="lt_regular"  y="36"></text><text text-decoration="none" x="0" fill="#ffffff" font-size="11pt" font-family="lt_regular"  y="56">ShareFromUsers:&#160;</text><text text-decoration="none" x="0" fill="#ffffff" font-size="11pt" font-family="lt_regular"  y="76">User</text><text text-decoration="none" x="30" fill="#ffffff" font-size="11pt" font-family="lt_regular"  y="76"></text><text text-decoration="none" x="0" fill="#ffffff" font-size="11pt" font-family="lt_regular"  y="96">PhoneNumer:&#160;</text><text text-decoration="none" x="94" fill="#ffffff" font-size="11pt" font-family="lt_regular"  y="96">Int</text><text text-decoration="none" x="111" fill="#ffffff" font-size="11pt" font-family="lt_regular"  y="96"></text><text text-decoration="none" x="0" fill="#ffffff" font-size="11pt" font-family="lt_regular"  y="116">email:&#160;</text><text text-decoration="none" x="43" fill="#ffffff" font-size="11pt" font-family="lt_regular"  y="116">String</text><text text-decoration="none" x="81" fill="#4b4b4b" font-size="10pt" font-family="noto_regular"  y="116"></text></g><g transform="translate(710, -155) rotate(0, 0, 0)" width="140" height="40"><text text-decoration="none" x="0" fill="#ffffff" font-size="11pt" font-family="lt_regular"  y="16">+SendShareRequest()</text><text text-decoration="none" x="137" fill="#ffffff" font-size="11pt" font-family="lt_regular"  y="16"></text><text text-decoration="none" x="0" fill="#ffffff" font-size="11pt" font-family="lt_regular"  y="36">+ReplyShareRequest()</text><text text-decoration="none" x="142" fill="#4b4b4b" font-size="10pt" font-family="noto_regular"  y="36"></text></g></g><g id="YKHVezYKarZ"><g transform="translate(690 50)"><rect x="0" y="0" width="170" height="200" rx="2" ry="2" fill="rgb(166,115,177)" stroke="#593c60" stroke-width="2" stroke-linecap="round" stroke-linejoin="round" stroke-dasharray="0 0"/><path d="M 0,30 L 170,30 M 0,120 L 170,120" fill="rgb(166,115,177)" stroke="#593c60" stroke-width="2" stroke-linecap="round" stroke-linejoin="round" stroke-dasharray="0 0"/></g><g transform="translate(758.5, 55) rotate(0, 16.5, 0)" width="33" height="20"><text text-decoration="none" x="0" fill="#ffffff" font-size="11pt" font-family="lt_regular"  y="16">View</text><text text-decoration="none" x="34" fill="#4b4b4b" font-size="10pt" font-family="noto_regular"  y="16"></text></g><g transform="translate(700, 85) rotate(0, 0, 0)" width="149" height="80"><text text-decoration="none" x="0" fill="#ffffff" font-size="11pt" font-family="lt_regular"  y="16">-month&#160;&#160;</text><text text-decoration="none" x="56" fill="#ffffff" font-size="11pt" font-family="lt_regular"  y="16">:&#160;</text><text text-decoration="none" x="0" fill="#ffffff" font-size="11pt" font-family="lt_regular"  y="36">MonthlyView</text><text text-decoration="none" x="90" fill="#ffffff" font-size="11pt" font-family="lt_regular"  y="36"></text><text text-decoration="none" x="0" fill="#ffffff" font-size="11pt" font-family="lt_regular"  y="56">-week&#160;</text><text text-decoration="none" x="46" fill="#ffffff" font-size="11pt" font-family="lt_regular"  y="56">:&#160;</text><text text-decoration="none" x="54" fill="#ffffff" font-size="11pt" font-family="lt_regular"  y="56">WeeklyView</text><text text-decoration="none" x="140" fill="#ffffff" font-size="11pt" font-family="lt_regular"  y="56"></text><text text-decoration="none" x="0" fill="#ffffff" font-size="11pt" font-family="lt_regular"  y="76">-day&#160;</text><text text-decoration="none" x="33" fill="#ffffff" font-size="11pt" font-family="lt_regular"  y="76">:&#160;</text><text text-decoration="none" x="41" fill="#ffffff" font-size="11pt" font-family="lt_regular"  y="76">DailyView</text><text text-decoration="none" x="109" fill="#ffffff" font-size="11pt" font-family="lt_regular"  y="76"></text><text text-decoration="none" x="0" fill="#ffffff" font-size="11pt" font-family="lt_regular"  y="96">-agenda:&#160;</text><text text-decoration="none" x="60" fill="#ffffff" font-size="11pt" font-family="lt_regular"  y="96">AgendaView</text><text text-decoration="none" x="143" fill="#4b4b4b" font-size="10pt" font-family="noto_regular"  y="96"></text></g><g transform="translate(700, 175) rotate(0, 0, 0)" width="108" height="40"><text text-decoration="none" x="0" fill="#ffffff" font-size="11pt" font-family="lt_regular"  y="16">+SwitchView()</text><text text-decoration="none" x="95" fill="#ffffff" font-size="11pt" font-family="lt_regular"  y="16"></text><text text-decoration="none" x="0" fill="#ffffff" font-size="11pt" font-family="lt_regular"  y="36">+BuildEventList()</text><text text-decoration="none" x="112" fill="#4b4b4b" font-size="10pt" font-family="noto_regular"  y="36"></text></g></g><g id="Uf3CE3D0qFk"><g transform="translate(390 350)"><rect x="0" y="0" width="180" height="250" rx="2" ry="2" fill="rgb(0,162,152)" stroke="#065651" stroke-width="2" stroke-linecap="round" stroke-linejoin="round" stroke-dasharray="0 0"/><path d="M 0,30 L 180,30 M 0,120 L 180,120" fill="rgb(0,162,152)" stroke="#065651" stroke-width="2" stroke-linecap="round" stroke-linejoin="round" stroke-dasharray="0 0"/></g><g transform="translate(400, 355) rotate(0, 0, 0)" width="86" height="20"><text text-decoration="none" x="0" fill="#ffffff" font-size="11pt" font-family="lt_regular"  y="16">MonthlyView</text><text text-decoration="none" x="90" fill="#4b4b4b" font-size="10pt" font-family="noto_regular"  y="16"></text></g><g transform="translate(400, 385) rotate(0, 0, 0)" width="165" height="80"><text text-decoration="none" x="0" fill="#ffffff" font-size="11pt" font-family="lt_regular"  y="16">Year&#160;</text><text text-decoration="none" x="33" fill="#ffffff" font-size="11pt" font-family="lt_regular"  y="16">:&#160;</text><text text-decoration="none" x="41" fill="#ffffff" font-size="11pt" font-family="lt_regular"  y="16">int</text><text text-decoration="none" x="58" fill="#ffffff" font-size="11pt" font-family="lt_regular"  y="16"></text><text text-decoration="none" x="0" fill="#ffffff" font-size="11pt" font-family="lt_regular"  y="36">MonthName:&#160;</text><text text-decoration="none" x="90" fill="#ffffff" font-size="11pt" font-family="lt_regular"  y="36">String</text><text text-decoration="none" x="128" fill="#ffffff" font-size="11pt" font-family="lt_regular"  y="36"></text><text text-decoration="none" x="0" fill="#ffffff" font-size="11pt" font-family="lt_regular"  y="56">MonthDays:&#160;</text><text text-decoration="none" x="84" fill="#ffffff" font-size="11pt" font-family="lt_regular"  y="56">Int</text><text text-decoration="none" x="101" fill="#ffffff" font-size="11pt" font-family="lt_regular"  y="56"></text><text text-decoration="none" x="0" fill="#ffffff" font-size="11pt" font-family="lt_regular"  y="76">events&#160;</text><text text-decoration="none" x="47" fill="#ffffff" font-size="11pt" font-family="lt_regular"  y="76">:&#160;</text><text text-decoration="none" x="0" fill="#ffffff" font-size="11pt" font-family="lt_regular"  y="96">ArrayList&#x3C;Event&#x3E;</text><text text-decoration="none" x="114" fill="#4b4b4b" font-size="10pt" font-family="noto_regular"  y="96"></text></g><g transform="translate(400, 475) rotate(0, 0, 0)" width="102" height="80"><text text-decoration="none" x="0" fill="#ffffff" font-size="11pt" font-family="lt_regular"  y="16">+SwitchMonth()</text><text text-decoration="none" x="0" fill="#ffffff" font-size="11pt" font-family="lt_regular"  y="36"></text><text text-decoration="none" x="0" fill="#ffffff" font-size="11pt" font-family="lt_regular"  y="56">+SelectDay()</text><text text-decoration="none" x="83" fill="#ffffff" font-size="11pt" font-family="lt_regular"  y="56"></text><text text-decoration="none" x="0" fill="#ffffff" font-size="11pt" font-family="lt_regular"  y="76">+CreateEvent()</text><text text-decoration="none" x="98" fill="#ffffff" font-size="11pt" font-family="lt_regular"  y="76"></text><text text-decoration="none" x="0" fill="#ffffff" font-size="11pt" font-family="lt_regular"  y="96">+SelectEvent()</text><text text-decoration="none" x="95" fill="#4b4b4b" font-size="10pt" font-family="noto_regular"  y="96"></text></g></g><g id="6LXxGEefEgl"><g transform="translate(590 350)"><rect x="0" y="0" width="180" height="250" rx="2" ry="2" fill="rgb(0,162,152)" stroke="#065651" stroke-width="2" stroke-linecap="round" stroke-linejoin="round" stroke-dasharray="0 0"/><path d="M 0,30 L 180,30 M 0,140 L 180,140" fill="rgb(0,162,152)" stroke="#065651" stroke-width="2" stroke-linecap="round" stroke-linejoin="round" stroke-dasharray="0 0"/></g><g transform="translate(600, 355) rotate(0, 0, 0)" width="81" height="20"><text text-decoration="none" x="0" fill="#ffffff" font-size="11pt" font-family="lt_regular"  y="16">WeeklyView</text><text text-decoration="none" x="86" fill="#4b4b4b" font-size="10pt" font-family="noto_regular"  y="16"></text></g><g transform="translate(600, 385) rotate(0, 0, 0)" width="165" height="100"><text text-decoration="none" x="0" fill="#ffffff" font-size="11pt" font-family="lt_regular"  y="16">Year&#160;</text><text text-decoration="none" x="33" fill="#ffffff" font-size="11pt" font-family="lt_regular"  y="16">:&#160;</text><text text-decoration="none" x="41" fill="#ffffff" font-size="11pt" font-family="lt_regular"  y="16">int</text><text text-decoration="none" x="58" fill="#ffffff" font-size="11pt" font-family="lt_regular"  y="16"></text><text text-decoration="none" x="0" fill="#ffffff" font-size="11pt" font-family="lt_regular"  y="36">MonthName:&#160;</text><text text-decoration="none" x="90" fill="#ffffff" font-size="11pt" font-family="lt_regular"  y="36">String</text><text text-decoration="none" x="128" fill="#ffffff" font-size="11pt" font-family="lt_regular"  y="36"></text><text text-decoration="none" x="0" fill="#ffffff" font-size="11pt" font-family="lt_regular"  y="56">MonthDays:&#160;</text><text text-decoration="none" x="84" fill="#ffffff" font-size="11pt" font-family="lt_regular"  y="56">Int</text><text text-decoration="none" x="101" fill="#ffffff" font-size="11pt" font-family="lt_regular"  y="56"></text><text text-decoration="none" x="0" fill="#ffffff" font-size="11pt" font-family="lt_regular"  y="76">StartDay:&#160;</text><text text-decoration="none" x="64" fill="#ffffff" font-size="11pt" font-family="lt_regular"  y="76">Int</text><text text-decoration="none" x="81" fill="#ffffff" font-size="11pt" font-family="lt_regular"  y="76"></text><text text-decoration="none" x="0" fill="#ffffff" font-size="11pt" font-family="lt_regular"  y="96">events&#160;</text><text text-decoration="none" x="47" fill="#ffffff" font-size="11pt" font-family="lt_regular"  y="96">:&#160;</text><text text-decoration="none" x="0" fill="#ffffff" font-size="11pt" font-family="lt_regular"  y="116">ArrayList&#x3C;Event&#x3E;</text><text text-decoration="none" x="114" fill="#4b4b4b" font-size="10pt" font-family="noto_regular"  y="116"></text></g><g transform="translate(600, 495) rotate(0, 0, 0)" width="96" height="80"><text text-decoration="none" x="0" fill="#ffffff" font-size="11pt" font-family="lt_regular"  y="16">+SwitchWeek()</text><text text-decoration="none" x="0" fill="#ffffff" font-size="11pt" font-family="lt_regular"  y="36"></text><text text-decoration="none" x="0" fill="#ffffff" font-size="11pt" font-family="lt_regular"  y="56">+SelectDay()</text><text text-decoration="none" x="83" fill="#ffffff" font-size="11pt" font-family="lt_regular"  y="56"></text><text text-decoration="none" x="0" fill="#ffffff" font-size="11pt" font-family="lt_regular"  y="76">+CreateEvent()</text><text text-decoration="none" x="0" fill="#ffffff" font-size="11pt" font-family="lt_regular"  y="96"></text><text text-decoration="none" x="0" fill="#ffffff" font-size="11pt" font-family="lt_regular"  y="116">+SelectEvent()</text><text text-decoration="none" x="95" fill="#4b4b4b" font-size="10pt" font-family="noto_regular"  y="116"></text></g></g><g id="JMR9iSpunSg"><g transform="translate(790 350)"><rect x="0" y="0" width="180" height="200" rx="2" ry="2" fill="rgb(0,162,152)" stroke="#065651" stroke-width="2" stroke-linecap="round" stroke-linejoin="round" stroke-dasharray="0 0"/><path d="M 0,30 L 180,30 M 0,120 L 180,120" fill="rgb(0,162,152)" stroke="#065651" stroke-width="2" stroke-linecap="round" stroke-linejoin="round" stroke-dasharray="0 0"/></g><g transform="translate(800, 355) rotate(0, 0, 0)" width="65" height="20"><text text-decoration="none" x="0" fill="#ffffff" font-size="11pt" font-family="lt_regular"  y="16">DailyView</text><text text-decoration="none" x="68" fill="#4b4b4b" font-size="10pt" font-family="noto_regular"  y="16"></text></g><g transform="translate(800, 385) rotate(0, 0, 0)" width="161" height="80"><text text-decoration="none" x="0" fill="#ffffff" font-size="11pt" font-family="lt_regular"  y="16">-Year:&#160;</text><text text-decoration="none" x="43" fill="#ffffff" font-size="11pt" font-family="lt_regular"  y="16">Int</text><text text-decoration="none" x="60" fill="#ffffff" font-size="11pt" font-family="lt_regular"  y="16"></text><text text-decoration="none" x="0" fill="#ffffff" font-size="11pt" font-family="lt_regular"  y="36">-MonthName:&#160;</text><text text-decoration="none" x="96" fill="#ffffff" font-size="11pt" font-family="lt_regular"  y="36">String</text><text text-decoration="none" x="134" fill="#ffffff" font-size="11pt" font-family="lt_regular"  y="36"></text><text text-decoration="none" x="0" fill="#ffffff" font-size="11pt" font-family="lt_regular"  y="56">-Day:&#160;</text><text text-decoration="none" x="40" fill="#ffffff" font-size="11pt" font-family="lt_regular"  y="56">Int</text><text text-decoration="none" x="57" fill="#ffffff" font-size="11pt" font-family="lt_regular"  y="56"></text><text text-decoration="none" x="0" fill="#ffffff" font-size="11pt" font-family="lt_regular"  y="76">events:&#160;</text><text text-decoration="none" x="0" fill="#ffffff" font-size="11pt" font-family="lt_regular"  y="96">ArrayList&#x3C;Event&#x3E;</text><text text-decoration="none" x="114" fill="#4b4b4b" font-size="10pt" font-family="noto_regular"  y="96"></text></g><g transform="translate(800, 475) rotate(0, 0, 0)" width="95" height="60"><text text-decoration="none" x="0" fill="#ffffff" font-size="11pt" font-family="lt_regular"  y="16">+SwitchDay()</text><text text-decoration="none" x="87" fill="#ffffff" font-size="11pt" font-family="lt_regular"  y="16"></text><text text-decoration="none" x="0" fill="#ffffff" font-size="11pt" font-family="lt_regular"  y="36">+CreateEvent()</text><text text-decoration="none" x="0" fill="#ffffff" font-size="11pt" font-family="lt_regular"  y="56"></text><text text-decoration="none" x="0" fill="#ffffff" font-size="11pt" font-family="lt_regular"  y="76">+SelectEvent()</text><text text-decoration="none" x="95" fill="#4b4b4b" font-size="10pt" font-family="noto_regular"  y="76"></text></g></g><g id="pyKa2W8EhRk"><g transform="translate(990 350)"><rect x="0" y="0" width="180" height="150" rx="2" ry="2" fill="rgb(0,162,152)" stroke="#065651" stroke-width="2" stroke-linecap="round" stroke-linejoin="round" stroke-dasharray="0 0"/><path d="M 0,30 L 180,30 M 0,60 L 180,60" fill="rgb(0,162,152)" stroke="#065651" stroke-width="2" stroke-linecap="round" stroke-linejoin="round" stroke-dasharray="0 0"/></g><g transform="translate(1000, 355) rotate(0, 0, 0)" width="80" height="20"><text text-decoration="none" x="0" fill="#ffffff" font-size="11pt" font-family="lt_regular"  y="16">AgendaView</text><text text-decoration="none" x="83" fill="#4b4b4b" font-size="10pt" font-family="noto_regular"  y="16"></text></g><g transform="translate(1000, 385) rotate(0, 0, 0)" width="161" height="20"><text text-decoration="none" x="0" fill="#ffffff" font-size="11pt" font-family="lt_regular"  y="16">events:&#160;</text><text text-decoration="none" x="0" fill="#ffffff" font-size="11pt" font-family="lt_regular"  y="36">ArrayList&#x3C;Event&#x3E;</text><text text-decoration="none" x="114" fill="#4b4b4b" font-size="10pt" font-family="noto_regular"  y="36"></text></g><g transform="translate(1000, 415) rotate(0, 0, 0)" width="95" height="58"><text text-decoration="none" x="0" fill="#ffffff" font-size="11pt" font-family="lt_regular"  y="16">+CreateEvent()</text><text text-decoration="none" x="0" fill="#ffffff" font-size="11pt" font-family="lt_regular"  y="36"></text><text text-decoration="none" x="0" fill="#ffffff" font-size="11pt" font-family="lt_regular"  y="56">+SelectEvent()</text><text text-decoration="none" x="95" fill="#ffffff" font-size="11pt" font-family="lt_regular"  y="56"></text><text text-decoration="none" x="47.5" fill="#4b4b4b" font-size="10pt" font-family="noto_regular"  y="75"></text></g></g><g id="OFKEm4r5pIK"><g transform="translate(50 300)"><rect x="0" y="0" width="150.00000000000006" height="150" rx="2" ry="2" fill="rgb(0,162,152)" stroke="#065651" stroke-width="2" stroke-linecap="round" stroke-linejoin="round" stroke-dasharray="0 0"/><path d="M 0,30 L 150.00000000000006,30 M 0,80 L 150.00000000000006,80" fill="rgb(0,162,152)" stroke="#065651" stroke-width="2" stroke-linecap="round" stroke-linejoin="round" stroke-dasharray="0 0"/></g><g transform="translate(77.50000000000003, 305) rotate(0, 47.5, 0)" width="95" height="20"><text text-decoration="none" x="0" fill="#ffffff" font-size="11pt" font-family="lt_regular"  y="16">EventCategory</text><text text-decoration="none" x="98" fill="#4b4b4b" font-size="10pt" font-family="noto_regular"  y="16"></text></g><g transform="translate(60, 335) rotate(0, 0, 0)" width="89" height="40"><text text-decoration="none" x="0" fill="#ffffff" font-size="11pt" font-family="lt_regular"  y="16">-Name:&#160;</text><text text-decoration="none" x="0" fill="#ffffff" font-size="11pt" font-family="lt_regular"  y="36">String</text><text text-decoration="none" x="38" fill="#ffffff" font-size="11pt" font-family="lt_regular"  y="36"></text><text text-decoration="none" x="0" fill="#ffffff" font-size="11pt" font-family="lt_regular"  y="56">-Color&#160;</text><text text-decoration="none" x="47" fill="#ffffff" font-size="11pt" font-family="lt_regular"  y="56">:&#160;</text><text text-decoration="none" x="55" fill="#ffffff" font-size="11pt" font-family="lt_regular"  y="56">Int</text><text text-decoration="none" x="72" fill="#4b4b4b" font-size="10pt" font-family="noto_regular"  y="56"></text></g><g transform="translate(60.00000000000001, 385) rotate(0, 0, 0)" width="98" height="60"><text text-decoration="none" x="0" fill="#ffffff" font-size="11pt" font-family="lt_regular"  y="16">+Add()&#160;</text><text text-decoration="none" x="47" fill="#ffffff" font-size="11pt" font-family="lt_regular"  y="16">:&#160;</text><text text-decoration="none" x="55" fill="#ffffff" font-size="11pt" font-family="lt_regular"  y="16">void</text><text text-decoration="none" x="84" fill="#ffffff" font-size="11pt" font-family="lt_regular"  y="16"></text><text text-decoration="none" x="0" fill="#ffffff" font-size="11pt" font-family="lt_regular"  y="36">+Edit()&#160;</text><text text-decoration="none" x="47" fill="#ffffff" font-size="11pt" font-family="lt_regular"  y="36">:&#160;</text><text text-decoration="none" x="55" fill="#ffffff" font-size="11pt" font-family="lt_regular"  y="36">void</text><text text-decoration="none" x="84" fill="#ffffff" font-size="11pt" font-family="lt_regular"  y="36"></text><text text-decoration="none" x="0" fill="#ffffff" font-size="11pt" font-family="lt_regular"  y="56">+Delete()&#160;</text><text text-decoration="none" x="65" fill="#ffffff" font-size="11pt" font-family="lt_regular"  y="56">:&#160;</text><text text-decoration="none" x="0" fill="#ffffff" font-size="11pt" font-family="lt_regular"  y="76">void</text><text text-decoration="none" x="29" fill="#4b4b4b" font-size="10pt" font-family="noto_regular"  y="76"></text></g></g><g id="ZV7feyvI27a"><g transform="translate(0 600)"><rect x="0" y="0" width="250" height="350" rx="2" ry="2" fill="rgb(166,115,177)" stroke="#593c60" stroke-width="2" stroke-linecap="round" stroke-linejoin="round" stroke-dasharray="0 0"/><path d="M 0,30 L 250,30 M 0,200 L 250,200" fill="rgb(166,115,177)" stroke="#593c60" stroke-width="2" stroke-linecap="round" stroke-linejoin="round" stroke-dasharray="0 0"/></g><g transform="translate(10, 605) rotate(0, 0, 0)" width="37" height="20"><text text-decoration="none" x="0" fill="#ffffff" font-size="11pt" font-family="lt_regular"  y="16">Event</text><text text-decoration="none" x="38" fill="#4b4b4b" font-size="10pt" font-family="noto_regular"  y="16"></text></g><g transform="translate(10.000000000000002, 635) rotate(0, 0, 0)" width="171" height="160"><text text-decoration="none" x="0" fill="#ffffff" font-size="11pt" font-family="lt_regular"  y="16">-Name&#160;</text><text text-decoration="none" x="48" fill="#ffffff" font-size="11pt" font-family="lt_regular"  y="16">:&#160;</text><text text-decoration="none" x="56" fill="#ffffff" font-size="11pt" font-family="lt_regular"  y="16">String</text><text text-decoration="none" x="94" fill="#ffffff" font-size="11pt" font-family="lt_regular"  y="16"></text><text text-decoration="none" x="0" fill="#ffffff" font-size="11pt" font-family="lt_regular"  y="36">-Date&#160;</text><text text-decoration="none" x="41" fill="#ffffff" font-size="11pt" font-family="lt_regular"  y="36">:&#160;</text><text text-decoration="none" x="49" fill="#ffffff" font-size="11pt" font-family="lt_regular"  y="36">Int</text><text text-decoration="none" x="66" fill="#ffffff" font-size="11pt" font-family="lt_regular"  y="36"></text><text text-decoration="none" x="0" fill="#ffffff" font-size="11pt" font-family="lt_regular"  y="56">-Start&#160;</text><text text-decoration="none" x="40" fill="#ffffff" font-size="11pt" font-family="lt_regular"  y="56">Time&#160;</text><text text-decoration="none" x="77" fill="#ffffff" font-size="11pt" font-family="lt_regular"  y="56">:&#160;</text><text text-decoration="none" x="85" fill="#ffffff" font-size="11pt" font-family="lt_regular"  y="56">Int</text><text text-decoration="none" x="102" fill="#ffffff" font-size="11pt" font-family="lt_regular"  y="56"></text><text text-decoration="none" x="0" fill="#ffffff" font-size="11pt" font-family="lt_regular"  y="76">-End&#160;</text><text text-decoration="none" x="35" fill="#ffffff" font-size="11pt" font-family="lt_regular"  y="76">Time&#160;</text><text text-decoration="none" x="72" fill="#ffffff" font-size="11pt" font-family="lt_regular"  y="76">:&#160;</text><text text-decoration="none" x="80" fill="#ffffff" font-size="11pt" font-family="lt_regular"  y="76">Int</text><text text-decoration="none" x="97" fill="#ffffff" font-size="11pt" font-family="lt_regular"  y="76"></text><text text-decoration="none" x="0" fill="#ffffff" font-size="11pt" font-family="lt_regular"  y="96">-Description&#160;</text><text text-decoration="none" x="85" fill="#ffffff" font-size="11pt" font-family="lt_regular"  y="96">:&#160;</text><text text-decoration="none" x="93" fill="#ffffff" font-size="11pt" font-family="lt_regular"  y="96">String</text><text text-decoration="none" x="131" fill="#ffffff" font-size="11pt" font-family="lt_regular"  y="96"></text><text text-decoration="none" x="0" fill="#ffffff" font-size="11pt" font-family="lt_regular"  y="116">-Category&#160;</text><text text-decoration="none" x="70" fill="#ffffff" font-size="11pt" font-family="lt_regular"  y="116">:&#160;</text><text text-decoration="none" x="0" fill="#ffffff" font-size="11pt" font-family="lt_regular"  y="136">EventCategory</text><text text-decoration="none" x="98" fill="#ffffff" font-size="11pt" font-family="lt_regular"  y="136"></text><text text-decoration="none" x="0" fill="#ffffff" font-size="11pt" font-family="lt_regular"  y="156">-Shareable:&#160;</text><text text-decoration="none" x="77" fill="#ffffff" font-size="11pt" font-family="lt_regular"  y="156">bool</text><text text-decoration="none" x="107" fill="#ffffff" font-size="11pt" font-family="lt_regular"  y="156"></text><text text-decoration="none" x="0" fill="#ffffff" font-size="11pt" font-family="lt_regular"  y="176">-Snippet():&#160;</text><text text-decoration="none" x="71" fill="#ffffff" font-size="11pt" font-family="lt_regular"  y="176">String</text><text text-decoration="none" x="109" fill="#4b4b4b" font-size="10pt" font-family="noto_regular"  y="176"></text></g><g transform="translate(10.000000000000012, 805) rotate(0, 0, 0)" width="203" height="140"><text text-decoration="none" x="0" fill="#ffffff" font-size="11pt" font-family="lt_regular"  y="16">+Add()</text><text text-decoration="none" x="43" fill="#ffffff" font-size="11pt" font-family="lt_regular"  y="16"></text><text text-decoration="none" x="0" fill="#ffffff" font-size="11pt" font-family="lt_regular"  y="36">+Edit()</text><text text-decoration="none" x="43" fill="#ffffff" font-size="11pt" font-family="lt_regular"  y="36"></text><text text-decoration="none" x="0" fill="#ffffff" font-size="11pt" font-family="lt_regular"  y="56">+Delete()&#160;</text><text text-decoration="none" x="65" fill="#ffffff" font-size="11pt" font-family="lt_regular"  y="56"></text><text text-decoration="none" x="0" fill="#ffffff" font-size="11pt" font-family="lt_regular"  y="76">+AddAlert()&#160;</text><text text-decoration="none" x="79" fill="#ffffff" font-size="11pt" font-family="lt_regular"  y="76"></text><text text-decoration="none" x="0" fill="#ffffff" font-size="11pt" font-family="lt_regular"  y="96">+CreateCategory()</text><text text-decoration="none" x="120" fill="#ffffff" font-size="11pt" font-family="lt_regular"  y="96"></text><text text-decoration="none" x="0" fill="#ffffff" font-size="11pt" font-family="lt_regular"  y="116">+Share()</text><text text-decoration="none" x="53" fill="#ffffff" font-size="11pt" font-family="lt_regular"  y="116"></text><text text-decoration="none" x="0" fill="#ffffff" font-size="11pt" font-family="lt_regular"  y="136">+SetRepetition(bool,&#160;</text><text text-decoration="none" x="139" fill="#ffffff" font-size="11pt" font-family="lt_regular"  y="136">bool,&#160;</text><text text-decoration="none" x="0" fill="#ffffff" font-size="11pt" font-family="lt_regular"  y="156">bool)</text><text text-decoration="none" x="34" fill="#4b4b4b" font-size="10pt" font-family="noto_regular"  y="156"></text></g></g><g id="jfuNfz4cVXf"><mask id="a1b46" x="761" y="-114" width="28" height="178" maskUnits="userSpaceOnUse"><rect x="761" y="-114" width="28" height="178" fill="white" /><rect x="768" y="7" width="14" height="26" fill="black" /><rect x="768" y="-83" width="14" height="26" fill="black" /></mask><g mask="url(#a1b46)"><path d="M 775,50 L 775,-100" fill="none" stroke="#9A9A9A" stroke-width="2" stroke-linecap="round" stroke-linejoin="round"/></g><g transform="translate(771, 10)" width="8" height="20"><text text-decoration="none" x="0" fill="#4b4b4b" font-size="11pt" font-family="lt_regular"  y="16">1</text><text text-decoration="none" x="9" fill="#4b4b4b" font-size="10pt" font-family="noto_regular"  y="16"></text></g><g transform="translate(771, -80)" width="8" height="20"><text text-decoration="none" x="0" fill="#4b4b4b" font-size="11pt" font-family="lt_regular"  y="16">1</text><text text-decoration="none" x="9" fill="#4b4b4b" font-size="10pt" font-family="noto_regular"  y="16"></text></g></g><g id="oMkEt7O0rrx"><g transform="translate(660 200)"><path d="M 15.000000000000002,0 L 0,15.000000000000005 L 15.000000000000002,30.00000000000001 L 30.000000000000004,15.000000000000005 L 15.000000000000002,0 Z" fill="rgb(126,126,126)" stroke="#7e7e7e" stroke-width="2" stroke-linecap="round" stroke-linejoin="round"/></g></g><g id="RLXOSyoM9Fx"><g transform="translate(700 250)"><path d="M 15.000000000000002,0 L 0,15.000000000000002 L 15.000000000000002,30.000000000000004 L 30.000000000000004,15.000000000000002 L 15.000000000000002,0 Z" fill="rgb(126,126,126)" stroke="#7e7e7e" stroke-width="2" stroke-linecap="round" stroke-linejoin="round"/></g></g><g id="TsUao7dYDSf"><g transform="translate(860 200)"><path d="M 15.000000000000002,0 L 0,15.000000000000002 L 15.000000000000002,30.000000000000004 L 30.000000000000004,15.000000000000002 L 15.000000000000002,0 Z" fill="rgb(126,126,126)" stroke="#7e7e7e" stroke-width="2" stroke-linecap="round" stroke-linejoin="round"/></g></g><g id="jev83SeNTnm"><g transform="translate(820 250)"><path d="M 15.000000000000002,0 L 0,15.000000000000002 L 15.000000000000002,30.000000000000004 L 30.000000000000004,15.000000000000002 L 15.000000000000002,0 Z" fill="rgb(126,126,126)" stroke="#7e7e7e" stroke-width="2" stroke-linecap="round" stroke-linejoin="round"/></g></g><g id="djez6FfhKRT"><g><path d="M 680,350 L 680,325 Q 680,315 690,315 L 698,315 L 705,315 Q 715,315 715,305 L 715,280" fill="none" stroke="#7E7E7E" stroke-width="2" stroke-linecap="round" stroke-linejoin="round"/></g></g><g id="RfcWq01Axf8"><g><path d="M 880,350 L 880,325 Q 880,315 870,315 L 858,315 L 845,315 Q 835,315 835,305 L 835,280" fill="none" stroke="#7E7E7E" stroke-width="2" stroke-linecap="round" stroke-linejoin="round"/></g></g><g id="xR0fgDX0O76"><g><path d="M 1080,350 L 1080,225 Q 1080,215 1070,215 L 890,215" fill="none" stroke="#7E7E7E" stroke-width="2" stroke-linecap="round" stroke-linejoin="round"/></g></g><g id="BrK7nmPvdRw"><g><path d="M 480,350 L 480,225 Q 480,215 490,215 L 660,215" fill="none" stroke="#7E7E7E" stroke-width="2" stroke-linecap="round" stroke-linejoin="round"/></g></g><g id="bQ9tLtfj6cz"><g transform="translate(110 570)"><path d="M 15.000000000000039,0 L 0,15 L 15.000000000000039,30 L 30.000000000000078,15 L 15.000000000000039,0 Z" fill="white" stroke="#7e7e7e" stroke-width="2" stroke-linecap="round" stroke-linejoin="round"/></g></g><g id="x0NXiut2Wvv"><g><path d="M 125,450 L 125,570" fill="none" stroke="#7E7E7E" stroke-width="2" stroke-linecap="round" stroke-linejoin="round"/></g></g><g id="ZDqzqrgq13w"><mask id="45907" x="174" y="524" width="230" height="90" maskUnits="userSpaceOnUse"><rect x="174" y="524" width="230" height="90" fill="white" /><rect x="346.000091449056" y="524.9259261517261" width="28" height="26" fill="black" /><rect x="181.76000767963137" y="557.0009599539225" width="12" height="26" fill="black" /></mask><g mask="url(#45907)"><path d="M 390,538 L 197.49996951698134,537.524691282758 Q 187.5,537.5 187.57999744012287,547.4996800153592 L 188,600" fill="none" stroke="#9A9A9A" stroke-width="2" stroke-linecap="round" stroke-linejoin="round"/></g><g transform="translate(349.000091449056, 527.9259261517261)" width="22" height="20"><text text-decoration="none" x="0" fill="#4b4b4b" font-size="11pt" font-family="lt_regular"  y="16">1..*</text><text text-decoration="none" x="23" fill="#4b4b4b" font-size="10pt" font-family="noto_regular"  y="16"></text></g><g transform="translate(184.76000767963137, 560.0009599539225)" width="6" height="20"><text text-decoration="none" x="0" fill="#4b4b4b" font-size="11pt" font-family="lt_regular"  y="16">*</text><text text-decoration="none" x="6" fill="#4b4b4b" font-size="10pt" font-family="noto_regular"  y="16"></text></g></g><g id="VJoh1W3g5UL"><mask id="93fde" x="236" y="586" width="413" height="116" maskUnits="userSpaceOnUse"><rect x="236" y="586" width="413" height="116" fill="white" /><rect x="621" y="617" width="28" height="26" fill="black" /><rect x="273.999974700656" y="674.9610389938953" width="12" height="26" fill="black" /></mask><g mask="url(#93fde)"><path d="M 635,600 L 635,677.5 Q 635,687.5 625.0000084331147,687.512987002035 L 250,688" fill="none" stroke="#9A9A9A" stroke-width="2" stroke-linecap="round" stroke-linejoin="round"/></g><g transform="translate(624, 620)" width="22" height="20"><text text-decoration="none" x="0" fill="rgb(75, 75, 75)" font-size="11pt" font-family="lt_regular"  y="16">1..*</text><text text-decoration="none" x="23" fill="#4b4b4b" font-size="10pt" font-family="noto_regular"  y="16"></text></g><g transform="translate(276.999974700656, 677.9610389938953)" width="6" height="20"><text text-decoration="none" x="0" fill="#4b4b4b" font-size="11pt" font-family="lt_regular"  y="16">*</text><text text-decoration="none" x="6" fill="#4b4b4b" font-size="10pt" font-family="noto_regular"  y="16"></text></g></g><g id="R1S9opn7ACm"><mask id="8579d" x="236" y="536" width="613" height="253" maskUnits="userSpaceOnUse"><rect x="236" y="536" width="613" height="253" fill="white" /><rect x="821" y="567" width="28" height="26" fill="black" /><rect x="274" y="762" width="12" height="26" fill="black" /></mask><g mask="url(#8579d)"><path d="M 835,550 L 835,765 Q 835,775 825,775 L 250,775" fill="none" stroke="#9A9A9A" stroke-width="2" stroke-linecap="round" stroke-linejoin="round"/></g><g transform="translate(824, 570)" width="22" height="20"><text text-decoration="none" x="0" fill="#4b4b4b" font-size="11pt" font-family="lt_regular"  y="16">1..*</text><text text-decoration="none" x="23" fill="#4b4b4b" font-size="10pt" font-family="noto_regular"  y="16"></text></g><g transform="translate(277, 765)" width="6" height="20"><text text-decoration="none" x="0" fill="#4b4b4b" font-size="11pt" font-family="lt_regular"  y="16">*</text><text text-decoration="none" x="6" fill="#4b4b4b" font-size="10pt" font-family="noto_regular"  y="16"></text></g></g><g id="OPF6cKRgF00"><mask id="13e28" x="236" y="486" width="813" height="391" maskUnits="userSpaceOnUse"><rect x="236" y="486" width="813" height="391" fill="white" /><rect x="1021" y="517" width="28" height="26" fill="black" /><rect x="273.9999939145624" y="849.9808917236213" width="12" height="26" fill="black" /></mask><g mask="url(#13e28)"><path d="M 1035,500 L 1035,852.5 Q 1035,862.5 1025.0000020284792,862.5063694254595 L 250,863" fill="none" stroke="#9A9A9A" stroke-width="2" stroke-linecap="round" stroke-linejoin="round"/></g><g transform="translate(1024, 520)" width="22" height="20"><text text-decoration="none" x="0" fill="#4b4b4b" font-size="11pt" font-family="lt_regular"  y="16">1..*</text><text text-decoration="none" x="23" fill="#4b4b4b" font-size="10pt" font-family="noto_regular"  y="16"></text></g><g transform="translate(276.9999939145624, 852.9808917236213)" width="6" height="20"><text text-decoration="none" x="0" fill="#4b4b4b" font-size="11pt" font-family="lt_regular"  y="16">*</text><text text-decoration="none" x="6" fill="#4b4b4b" font-size="10pt" font-family="noto_regular"  y="16"></text></g></g></svg>